<svg xmlns="http://www.w3.org/2000/svg" viewBox="0 0 1024 1024" width="1024" height="1024">
  <defs>
    <linearGradient id="blueCard" x1="0%" y1="0%" x2="100%" y2="100%">
      <stop offset="0%" stop-color="#6DD5FA"/>
      <stop offset="50%" stop-color="#2196F3"/>
      <stop offset="100%" stop-color="#0277BD"/>
    </linearGradient>
  </defs>
  
  <g transform="translate(480, 470) rotate(-8)">
    <!-- Card body -->
    <rect x="-330" y="-215" width="660" height="430" rx="44" ry="44" fill="url(#blueCard)"/>

    <!-- Storefront icon in circle -->
    <g transform="translate(-220, -125)">
      <circle cx="0" cy="0" r="40" fill="white"/>
      <path d="M-22,-14 L22,-14 L26,-3 Q20,5 13,-3 Q6,5 0,-3 Q-6,5 -13,-3 Q-20,5 -26,-3 Z" fill="#0277BD"/>
      <rect x="-20" y="-3" width="40" height="26" rx="2" fill="#0277BD"/>
      <rect x="-5" y="6" width="10" height="17" rx="2" fill="white"/>
      <rect x="-18" y="2" width="9" height="9" rx="2" fill="#4FC3F7"/>
      <rect x="9" y="2" width="9" height="9" rx="2" fill="#4FC3F7"/>
    </g>
    
    <!-- Placeholder text lines -->
    <rect x="-150" y="-155" width="145" height="14" rx="7" fill="white" opacity="0.6"/>
    <rect x="-150" y="-130" width="100" height="10" rx="5" fill="white" opacity="0.4"/>
    
    <!-- White barcode area -->
    <rect x="-270" y="20" width="540" height="148" rx="22" ry="22" fill="white"/>
    
    <!-- Stylized barcode -->
    <g fill="#0277BD">
      <rect x="-215" y="48" width="9" height="90" rx="4.5"/>
      <rect x="-196" y="58" width="5" height="68" rx="2.5"/>
      <rect x="-182" y="48" width="12" height="90" rx="5"/>
      <rect x="-160" y="56" width="7" height="75" rx="3.5"/>
      <rect x="-144" y="48" width="5" height="90" rx="2.5"/>
      <rect x="-130" y="64" width="10" height="60" rx="5"/>
      <rect x="-110" y="48" width="7" height="90" rx="3.5"/>
      <rect x="-93" y="56" width="12" height="75" rx="5"/>
      <rect x="-71" y="48" width="5" height="90" rx="2.5"/>
      <rect x="-57" y="58" width="9" height="68" rx="4.5"/>
      <rect x="-38" y="48" width="7" height="90" rx="3.5"/>
      <rect x="-22" y="52" width="10" height="82" rx="5"/>
      <rect x="-2" y="48" width="5" height="90" rx="2.5"/>
      <rect x="13" y="58" width="12" height="68" rx="5"/>
      <rect x="35" y="48" width="7" height="90" rx="3.5"/>
      <rect x="52" y="56" width="5" height="75" rx="2.5"/>
      <rect x="67" y="48" width="10" height="90" rx="5"/>
      <rect x="87" y="64" width="7" height="60" rx="3.5"/>
      <rect x="104" y="48" width="9" height="90" rx="4.5"/>
      <rect x="123" y="56" width="5" height="75" rx="2.5"/>
      <rect x="138" y="48" width="12" height="90" rx="5"/>
      <rect x="160" y="58" width="7" height="68" rx="3.5"/>
      <rect x="177" y="48" width="9" height="90" rx="4.5"/>
      <rect x="196" y="52" width="5" height="82" rx="2.5"/>
    </g>
  </g>
</svg>